<svg width="36" height="36" viewBox="0 0 36 36" fill="none" xmlns="http://www.w3.org/2000/svg">
<path d="M13.5 4.5H6C5.17157 4.5 4.5 5.17157 4.5 6V13.5C4.5 14.3284 5.17157 15 6 15H13.5C14.3284 15 15 14.3284 15 13.5V6C15 5.17157 14.3284 4.5 13.5 4.5Z" stroke="#1C2627" stroke-width="3.75" stroke-linecap="round" stroke-linejoin="round"/>
<path d="M30 4.5H22.5C21.6716 4.5 21 5.17157 21 6V13.5C21 14.3284 21.6716 15 22.5 15H30C30.8284 15 31.5 14.3284 31.5 13.5V6C31.5 5.17157 30.8284 4.5 30 4.5Z" stroke="#1C2627" stroke-width="3.75" stroke-linecap="round" stroke-linejoin="round"/>
<path d="M30 20.9999H22.5C21.6716 20.9999 21 21.6715 21 22.4999V29.9999C21 30.8283 21.6716 31.4999 22.5 31.4999H30C30.8284 31.4999 31.5 30.8283 31.5 29.9999V22.4999C31.5 21.6715 30.8284 20.9999 30 20.9999Z" stroke="#1C2627" stroke-width="3.75" stroke-linecap="round" stroke-linejoin="round"/>
<path d="M13.5 20.9999H6C5.17157 20.9999 4.5 21.6715 4.5 22.4999V29.9999C4.5 30.8283 5.17157 31.4999 6 31.4999H13.5C14.3284 31.4999 15 30.8283 15 29.9999V22.4999C15 21.6715 14.3284 20.9999 13.5 20.9999Z" stroke="#1C2627" stroke-width="3.75" stroke-linecap="round" stroke-linejoin="round"/>
</svg>
