<svg width="36" height="36" viewBox="0 0 36 36" fill="none" xmlns="http://www.w3.org/2000/svg">
<path d="M13.5 4.5H6C5.17157 4.5 4.5 5.17157 4.5 6V13.5C4.5 14.3284 5.17157 15 6 15H13.5C14.3284 15 15 14.3284 15 13.5V6C15 5.17157 14.3284 4.5 13.5 4.5Z" stroke="#374151" stroke-width="3.75" stroke-linecap="round" stroke-linejoin="round"/>
<path d="M13.5 20.9999H6C5.17157 20.9999 4.5 21.6715 4.5 22.4999V29.9999C4.5 30.8283 5.17157 31.4999 6 31.4999H13.5C14.3284 31.4999 15 30.8283 15 29.9999V22.4999C15 21.6715 14.3284 20.9999 13.5 20.9999Z" stroke="#374151" stroke-width="3.75" stroke-linecap="round" stroke-linejoin="round"/>
<path d="M21 6H31.5" stroke="#374151" stroke-width="3.75" stroke-linecap="round" stroke-linejoin="round"/>
<path d="M21 13.5H31.5" stroke="#374151" stroke-width="3.75" stroke-linecap="round" stroke-linejoin="round"/>
<path d="M21 22.5H31.5" stroke="#374151" stroke-width="3.75" stroke-linecap="round" stroke-linejoin="round"/>
<path d="M21 30H31.5" stroke="#374151" stroke-width="3.75" stroke-linecap="round" stroke-linejoin="round"/>
</svg>
