<svg width="42" height="42" viewBox="0 0 42 42" fill="none" xmlns="http://www.w3.org/2000/svg">
<path d="M10.5 38.4995C13.3995 38.4995 15.75 36.149 15.75 33.2495C15.75 30.35 13.3995 27.9995 10.5 27.9995C7.60051 27.9995 5.25 30.35 5.25 33.2495C5.25 36.149 7.60051 38.4995 10.5 38.4995Z" stroke="white" stroke-width="4.47011" stroke-linecap="round" stroke-linejoin="round"/>
<path d="M15.75 33.2505H30.625C32.2495 33.2505 33.8074 32.6052 34.956 31.4565C36.1047 30.3079 36.75 28.7499 36.75 27.1255C36.75 25.501 36.1047 23.9431 34.956 22.7945C33.8074 21.6458 32.2495 21.0005 30.625 21.0005H11.375C9.75055 21.0005 8.19263 20.3552 7.04397 19.2065C5.89531 18.0579 5.25 16.4999 5.25 14.8755C5.25 13.251 5.89531 11.6931 7.04397 10.5445C8.19263 9.3958 9.75055 8.75049 11.375 8.75049H26.25" stroke="white" stroke-width="4.47011" stroke-linecap="round" stroke-linejoin="round"/>
<path d="M31.5 14.0005C34.3995 14.0005 36.75 11.65 36.75 8.75049C36.75 5.85099 34.3995 3.50049 31.5 3.50049C28.6005 3.50049 26.25 5.85099 26.25 8.75049C26.25 11.65 28.6005 14.0005 31.5 14.0005Z" stroke="white" stroke-width="4.47011" stroke-linecap="round" stroke-linejoin="round"/>
</svg>
