<svg width="42" height="42" viewBox="0 0 42 42" fill="none" xmlns="http://www.w3.org/2000/svg">
<path d="M21 22.7502V3.50024L35 10.5002L21 17.5002" stroke="white" stroke-width="4.375" stroke-linecap="round" stroke-linejoin="round"/>
<path d="M35.9817 17.8884C36.913 20.7586 37.0001 23.836 36.2328 26.7543C35.4654 29.6726 33.8759 32.3091 31.6532 34.3501C29.4306 36.391 26.6684 37.7505 23.6954 38.2668C20.7224 38.7831 17.6636 38.4345 14.883 37.2624C12.1024 36.0904 9.71696 34.1442 8.01059 31.6554C6.30422 29.1667 5.3487 26.2401 5.25771 23.224C5.16672 20.2078 5.9441 17.229 7.49735 14.6419C9.0506 12.0548 11.3143 9.96841 14.0192 8.63086" stroke="white" stroke-width="4.375" stroke-linecap="round" stroke-linejoin="round"/>
<path d="M14.0034 17.4946C13.1265 18.6619 12.5556 20.0301 12.3428 21.4745C12.1299 22.9188 12.2818 24.3935 12.7847 25.7642C13.2876 27.1348 14.1255 28.3578 15.222 29.3218C16.3185 30.2857 17.6388 30.96 19.0626 31.2832C20.4863 31.6063 21.9683 31.5681 23.3735 31.1719C24.7788 30.7757 26.0625 30.0343 27.1078 29.015C28.1531 27.9958 28.9268 26.7312 29.3583 25.3364C29.7899 23.9417 29.8655 22.4611 29.5784 21.0296" stroke="white" stroke-width="4.375" stroke-linecap="round" stroke-linejoin="round"/>
</svg>
