<svg width="24" height="24" viewBox="0 0 24 24" fill="none" xmlns="http://www.w3.org/2000/svg">
<path d="M11 17C11 18.0609 10.5786 19.0783 9.82843 19.8284C9.07828 20.5786 8.06087 21 7 21C5.93913 21 4.92172 20.5786 4.17157 19.8284C3.42143 19.0783 3 18.0609 3 17V5C3 4.46957 3.21071 3.96086 3.58579 3.58579C3.96086 3.21071 4.46957 3 5 3H9C9.53043 3 10.0391 3.21071 10.4142 3.58579C10.7893 3.96086 11 4.46957 11 5V17Z" stroke="white" stroke-width="2.25" stroke-linecap="round" stroke-linejoin="round"/>
<path d="M16.7 13H19C19.5304 13 20.0391 13.2107 20.4142 13.5858C20.7893 13.9609 21 14.4696 21 15V19C21 19.5304 20.7893 20.0391 20.4142 20.4142C20.0391 20.7893 19.5304 21 19 21H7" stroke="white" stroke-width="2.25" stroke-linecap="round" stroke-linejoin="round"/>
<path d="M7 17H7.01" stroke="white" stroke-width="2.25" stroke-linecap="round" stroke-linejoin="round"/>
<path d="M11 8.00005L13.3 5.70004C13.5233 5.47596 13.7887 5.29824 14.0809 5.17709C14.3732 5.05595 14.6865 4.99377 15.0028 4.99414C15.3192 4.99451 15.6323 5.05742 15.9243 5.17926C16.2162 5.30109 16.4812 5.47944 16.704 5.70405L18.6 7.60004C18.8306 7.82185 19.0145 8.08753 19.1409 8.38146C19.2674 8.67538 19.3337 8.99162 19.3361 9.31157C19.3386 9.63152 19.277 9.94873 19.155 10.2445C19.0331 10.5403 18.8532 10.8088 18.626 11.034L9.89999 19.8" stroke="white" stroke-width="2.25" stroke-linecap="round" stroke-linejoin="round"/>
</svg>
