<svg width="38" height="38" viewBox="0 0 38 38" fill="none" xmlns="http://www.w3.org/2000/svg">
<path d="M34.8333 26.7895V31.5395C34.8351 31.9805 34.7448 32.4169 34.5681 32.821C34.3915 33.225 34.1324 33.5877 33.8075 33.8858C33.4825 34.1839 33.0989 34.4109 32.6812 34.5521C32.2635 34.6934 31.8208 34.7459 31.3817 34.7062C26.5095 34.1768 21.8294 32.5119 17.7175 29.8453C13.8919 27.4144 10.6485 24.1709 8.2175 20.3453C5.54164 16.2147 3.87639 11.5119 3.35667 6.61784C3.3171 6.17999 3.36914 5.73871 3.50946 5.32207C3.64979 4.90544 3.87532 4.52259 4.17172 4.1979C4.46811 3.87321 4.82886 3.61379 5.23101 3.43616C5.63315 3.25853 6.06788 3.16658 6.5075 3.16617H11.2575C12.0259 3.15861 12.7708 3.43071 13.3535 3.93176C13.9361 4.43281 14.3166 5.12863 14.4242 5.8895C14.6247 7.40961 14.9965 8.90215 15.5325 10.3387C15.7455 10.9054 15.7916 11.5213 15.6654 12.1134C15.5391 12.7055 15.2457 13.249 14.82 13.6795L12.8092 15.6903C15.0631 19.6543 18.3452 22.9364 22.3092 25.1903L24.32 23.1795C24.7505 22.7538 25.294 22.4604 25.8861 22.3342C26.4782 22.2079 27.0941 22.254 27.6608 22.467C29.0974 23.003 30.5899 23.3749 32.11 23.5753C32.8791 23.6838 33.5816 24.0712 34.0837 24.6639C34.5858 25.2565 34.8526 26.013 34.8333 26.7895Z" stroke="white" stroke-width="3.95833" stroke-linecap="round" stroke-linejoin="round"/>
</svg>
