<svg width="24" height="24" viewBox="0 0 24 24" fill="none" xmlns="http://www.w3.org/2000/svg">
<g clip-path="url(#clip0_218_72)">
<path d="M12 22C17.5228 22 22 17.5228 22 12C22 6.47715 17.5228 2 12 2C6.47715 2 2 6.47715 2 12C2 17.5228 6.47715 22 12 22Z" stroke="#374151" stroke-width="2.25" stroke-linecap="round" stroke-linejoin="round"/>
<path d="M16 8H10C9.46957 8 8.96086 8.21071 8.58579 8.58579C8.21071 8.96086 8 9.46957 8 10C8 10.5304 8.21071 11.0391 8.58579 11.4142C8.96086 11.7893 9.46957 12 10 12H14C14.5304 12 15.0391 12.2107 15.4142 12.5858C15.7893 12.9609 16 13.4696 16 14C16 14.5304 15.7893 15.0391 15.4142 15.4142C15.0391 15.7893 14.5304 16 14 16H8" stroke="#374151" stroke-width="2.25" stroke-linecap="round" stroke-linejoin="round"/>
<path d="M12 18V6" stroke="#374151" stroke-width="2.25" stroke-linecap="round" stroke-linejoin="round"/>
</g>
<defs>
<clipPath id="clip0_218_72">
<rect width="24" height="24" fill="white"/>
</clipPath>
</defs>
</svg>
