<svg width="465" height="487" viewBox="0 0 465 487" fill="none" xmlns="http://www.w3.org/2000/svg">
<g clip-path="url(#clip0_57_285)">
<path d="M254.589 266.905C256.051 274.237 261.266 278.992 266.239 277.522C271.212 276.052 274.058 268.911 272.596 261.579C272.051 258.639 270.771 255.941 268.86 253.737L262.261 222.784L246.831 227.868L254.978 257.844C254.105 260.878 253.975 263.991 254.607 266.905H254.589Z" fill="#F8A8AB"/>
<path d="M219.812 470.425H237.923V444.738H219.812V470.425Z" fill="#F8A8AB"/>
<path d="M235.916 485.141C232.82 485.418 217.321 486.646 216.543 483.092C215.834 479.833 216.88 476.426 217.027 475.959C218.515 461.14 219.068 460.975 219.406 460.88C219.933 460.725 221.473 461.46 223.972 463.068L224.128 463.172L224.162 463.353C224.206 463.587 225.313 469.025 230.563 468.186C234.161 467.616 235.328 466.82 235.7 466.431C235.397 466.293 235.017 466.051 234.749 465.636C234.36 465.03 234.29 464.252 234.55 463.319C235.224 460.854 237.248 457.214 237.335 457.067L237.568 456.652L258.153 470.538L270.867 474.169C271.827 474.446 272.596 475.129 272.986 476.046C273.522 477.325 273.193 478.812 272.155 479.746C269.846 481.821 265.262 485.375 260.445 485.816C259.165 485.937 257.469 485.98 255.567 485.98C247.618 485.98 236.011 485.159 235.925 485.141H235.916Z" fill="#2F2E43"/>
<path d="M169.64 470.425H187.75V444.738H169.64V470.425Z" fill="#F8A8AB"/>
<path d="M185.744 485.141C182.648 485.418 167.149 486.646 166.37 483.092C165.661 479.833 166.708 476.426 166.855 475.959C168.342 461.14 168.896 460.975 169.233 460.88C169.761 460.725 171.3 461.46 173.8 463.068L173.956 463.172L173.99 463.353C174.033 463.587 175.14 469.025 180.39 468.186C183.988 467.616 185.156 466.82 185.528 466.431C185.225 466.293 184.844 466.051 184.576 465.636C184.187 465.03 184.118 464.252 184.377 463.319C185.052 460.854 187.076 457.214 187.162 457.067L187.396 456.652L207.98 470.538L220.694 474.169C221.654 474.446 222.424 475.129 222.813 476.046C223.349 477.325 223.021 478.812 221.983 479.746C219.674 481.821 215.09 485.375 210.272 485.816C208.992 485.937 207.297 485.98 205.394 485.98C197.446 485.98 185.839 485.159 185.753 485.141H185.744Z" fill="#2F2E43"/>
<path d="M184.317 86.7031L212.4 95.9285V55.5166H186.92L184.317 86.7031Z" fill="#F8A8AB"/>
<path d="M208.923 66.7049C224.376 66.7049 236.902 54.1822 236.902 38.7348C236.902 23.2873 224.376 10.7646 208.923 10.7646C193.471 10.7646 180.944 23.2873 180.944 38.7348C180.944 54.1822 193.471 66.7049 208.923 66.7049Z" fill="#F8A8AB"/>
<path d="M201.796 40.9217L205.654 45.5992L212.633 33.3909C212.633 33.3909 221.542 33.8492 221.542 27.2436C221.542 20.6379 229.715 20.4477 229.715 20.4477C229.715 20.4477 241.279 0.259094 217.321 5.57644C217.321 5.57644 200.707 -5.80182 192.438 3.92504C192.438 3.92504 167.097 16.678 174.353 38.8899L186.401 61.7847L189.134 56.6057C189.134 56.6057 187.482 34.8521 201.805 40.913L201.796 40.9217Z" fill="#2F2E43"/>
<path d="M0 485.971C0 486.541 0.458392 486.999 1.02922 486.999H463.971C464.542 486.999 465 486.541 465 485.971C465 485.4 464.542 484.942 463.971 484.942H1.02922C0.458392 484.942 0 485.4 0 485.971Z" fill="#484565"/>
<path d="M284.376 301.757L231.505 284.768C224.984 282.676 217.978 286.177 215.756 292.662L191.867 362.297C189.428 369.405 193.736 377.048 201.078 378.656L261.846 391.945C268.523 393.406 275.148 389.265 276.756 382.624L292.748 316.689C294.296 310.291 290.647 303.772 284.376 301.757Z" fill="#E2E3E4"/>
<path d="M279.014 316.447L275.606 315.842C277.786 303.461 280.795 270.45 268.644 266.403C262.754 264.441 256.821 267.873 251.017 276.615C246.459 283.488 243.795 291.097 243.769 291.175L240.5 290.042C240.967 288.702 252.081 257.239 269.733 263.118C287.178 268.928 279.351 314.502 279.005 316.438L279.014 316.447Z" fill="#2F2E43"/>
<path d="M238.926 219.775H144.419L167.547 458.139L194.358 456.41L195.682 284.75L212.556 360.084L217.494 455.113L241.927 456.41L244.764 348.308L238.926 219.775Z" fill="#2F2E43"/>
<path d="M182.786 71.9268L214.787 79.7082L242.144 197.892L238.926 219.775L158.794 233.332L144.419 219.775L182.786 71.9268Z" fill="#0D9AE9"/>
<path d="M182.734 66.0132L171.793 78.282L149.6 83.608L111.761 251.792L184.672 264.138L204.979 92.8507L182.734 66.0132Z" fill="#2F2E43"/>
<path d="M214.77 72.1431L209.061 92.4787L235.484 274.842H249.115L242.827 96.3867L224.318 81.6884L214.77 72.1431Z" fill="#2F2E43"/>
<path d="M231.851 94.1297L242.827 96.3864C242.827 96.3864 247.636 98.1502 249.383 111.811C251.121 125.472 251.432 171.348 251.432 171.348L270.097 245.359L248.898 252.345L238.917 212.521L231.843 94.1211L231.851 94.1297Z" fill="#2F2E43"/>
<path d="M213.542 84.6367L208.231 94.3722L218.852 208.57L206.458 220.078L194.946 209.46L203.362 94.8131L191.098 84.6367L195.387 81.5327L199.816 86.8414L208.672 85.0776L212.21 79.7603L213.542 84.6367Z" fill="#2F2E43"/>
<path d="M161.38 238.209C165.834 244.218 172.58 246.284 176.446 242.834C180.313 239.384 179.837 231.715 175.383 225.698C173.636 223.268 171.326 221.383 168.645 220.207L149.445 195.039L137.665 206.227L157.843 229.848C158.353 232.969 159.564 235.831 161.38 238.2V238.209Z" fill="#F8A8AB"/>
<path d="M158.37 86.366L149.6 83.6079C149.6 83.6079 137.717 86.5562 133.781 101.393L114.572 173.674L147.153 230.842L164.563 209.711L148.164 157.229L158.379 86.366H158.37Z" fill="#2F2E43"/>
</g>
<defs>
<clipPath id="clip0_57_285">
<rect width="465" height="487" fill="white"/>
</clipPath>
</defs>
</svg>
